#N canvas 700 136 826 690 10;
#X obj 170 366 phasor~;
#X obj 170 389 sin~;
#X obj 204 389 cos~;
#X obj 171 578 dac~;
#X obj 171 532 *~;
#X obj 205 532 *~;
#X obj 170 343 line~;
#X obj 142 250 t f b;
#X obj 265 412 line~;
#X msg 315 389 0 4;
#X obj 224 204 line;
#X obj 142 204 random 100;
#X msg 274 161 0;
#X obj 224 92 select 100;
#X obj 224 115 t b b;
#X obj 411 243 random 100;
#X obj 411 266 expr $f1+100;
#X obj 443 35 vsl 15 128 0 1 0 0 empty empty empty 0 -9 0 10 -262144
-1 -1 8890 1;
#X obj 468 220 expr 400-($f1*300);
#X obj 281 115 * 10;
#X obj 224 138 pack 100 f;
#X msg 224 161 100 \$1;
#X obj 383 35 vsl 15 128 0.3 1.5 0 0 empty empty empty 0 -9 0 10 -262144
-1 -1 7408 1;
#X obj 259 -28 loadbang;
#X obj 142 227 expr $f1*$f3*8+$f2*$f3*10+50;
#X obj 85 136 vsl 15 128 30 100 0 0 empty empty empty 0 -9 0 10 -262144
-1 -1 7257 1;
#X obj 111 320 pack f f;
#X obj 360 312 t b b b b b;
#X obj 171 555 +~;
#X obj 205 555 +~;
#X obj 423 458 line~;
#X msg 423 435 \$1 10;
#X obj 529 458 line~;
#X msg 529 435 \$1 10;
#X obj 529 389 random 100;
#X obj 423 389 random 100;
#X obj 423 412 expr $f1/100-0.5;
#X obj 529 412 expr $f1/100-0.5;
#X msg 265 389 0.5 90;
#X msg 383 10 1;
#X msg 85 111 70;
#X msg 169 320 20;
#X text 572 433 add random offset;
#X text 573 447 to make the bubbles;
#X text 574 460 jump;
#X text 303 422 90ms attack;
#X text 303 434 4ms release;
#X text 303 409 bubble envelope;
#X obj 315 366 delay;
#X msg 443 10 0.7;
#X obj 360 289 metro 100;
#X text 113 393 waveform;
#X text 113 380 circular;
#X text 421 283 trigger at;
#X text 421 295 random intervals;
#X text 461 28 density;
#X text 347 28 pitch;
#X text 103 129 size;
#X text 499 102 Jerobeam Fenderson / 2014;
#X text 499 116 jerobeamfenderson.net;
#X text 129 171 pitch:;
#X text 128 185 rising + random;
#X text 500 147 as used in "Khrậng" (video):;
#X text 501 160 http://www.youtube.com/watch?v=vAyCl4IHIz8;
#X text 499 88 bubbles for oscilloscopes;
#X connect 0 0 1 0;
#X connect 0 0 2 0;
#X connect 1 0 4 0;
#X connect 2 0 5 0;
#X connect 4 0 28 0;
#X connect 5 0 29 0;
#X connect 6 0 0 0;
#X connect 7 0 26 0;
#X connect 7 1 41 0;
#X connect 8 0 5 1;
#X connect 8 0 4 1;
#X connect 9 0 8 0;
#X connect 10 0 13 0;
#X connect 10 0 24 1;
#X connect 11 0 24 0;
#X connect 12 0 10 0;
#X connect 13 0 14 0;
#X connect 14 0 20 0;
#X connect 14 1 12 0;
#X connect 15 0 16 0;
#X connect 16 0 50 1;
#X connect 17 0 18 0;
#X connect 18 0 15 1;
#X connect 18 0 19 0;
#X connect 19 0 20 1;
#X connect 20 0 21 0;
#X connect 21 0 10 0;
#X connect 22 0 24 2;
#X connect 23 0 21 0;
#X connect 23 0 39 0;
#X connect 23 0 49 0;
#X connect 23 0 40 0;
#X connect 23 0 50 0;
#X connect 24 0 7 0;
#X connect 25 0 26 1;
#X connect 25 0 48 1;
#X connect 26 0 6 0;
#X connect 27 0 15 0;
#X connect 27 1 11 0;
#X connect 27 2 48 0;
#X connect 27 3 38 0;
#X connect 27 4 34 0;
#X connect 27 4 35 0;
#X connect 28 0 3 0;
#X connect 29 0 3 1;
#X connect 30 0 28 1;
#X connect 31 0 30 0;
#X connect 32 0 29 1;
#X connect 33 0 32 0;
#X connect 34 0 37 0;
#X connect 35 0 36 0;
#X connect 36 0 31 0;
#X connect 37 0 33 0;
#X connect 38 0 8 0;
#X connect 39 0 22 0;
#X connect 40 0 25 0;
#X connect 41 0 6 0;
#X connect 48 0 9 0;
#X connect 49 0 17 0;
#X connect 50 0 27 0;
