#N canvas 523 101 730 433 12;
#X obj 36 54 netreceive -u -b;
#X obj 36 87 oscparse;
#X msg 36 24 listen 2002;
#X obj 214 139 tgl 19 0 empty empty empty 0 -10 0 12 #fcfcfc #000000 #000000 0 1;
#X obj 117 186 print;
#X obj 37 245 catch~ \$0-output;
#X obj 37 315 dac~ 1 2;
#X obj 37 281 /~ 5;
#X obj 36 156 route oscControl;
#X obj 36 121 list trim;
#X floatatom 214 99 5 0 0 0 - - - 0;
#X obj 214 58 route toggle1;
#X obj 36 192 s input;
#X obj 324 139 tgl 19 0 empty empty empty 0 -10 0 12 #fcfcfc #000000 #000000 0 1;
#X floatatom 324 99 5 0 0 0 - - - 0;
#X obj 324 24 r input;
#X obj 324 58 route toggle2;
#X obj 439 139 tgl 19 0 empty empty empty 0 -10 0 12 #fcfcfc #000000 #000000 0 1;
#X floatatom 439 99 5 0 0 0 - - - 0;
#X obj 439 58 route toggle3;
#X floatatom 558 98 5 0 0 0 - - - 0;
#X floatatom 668 98 5 0 0 0 - - - 0;
#X obj 668 23 r input;
#X floatatom 783 98 5 0 0 0 - - - 0;
#X obj 558 57 route button1;
#X obj 668 57 route button2;
#X obj 783 57 route button3;
#X obj 558 138 bng 19 250 50 0 empty empty empty 0 -10 0 12 #fcfcfc #000000 #000000;
#X obj 668 137 bng 19 250 50 0 empty empty empty 0 -10 0 12 #fcfcfc #000000 #000000;
#X obj 783 136 bng 19 250 50 0 empty empty empty 0 -10 0 12 #fcfcfc #000000 #000000;
#X floatatom 897 96 5 0 0 0 - - - 0;
#X floatatom 1007 96 5 0 0 0 - - - 0;
#X obj 1093 16 r input;
#X floatatom 1122 96 5 0 0 0 - - - 0;
#X floatatom 1231 95 5 0 0 0 - - - 0;
#X obj 897 131 vsl 19 162 0 1 0 0 empty empty empty 0 -9 0 12 #fcfcfc #000000 #000000 0 1;
#X obj 1007 134 vsl 19 162 0 1 0 0 empty empty empty 0 -9 0 12 #fcfcfc #000000 #000000 0 1;
#X obj 1122 131 vsl 19 162 0 1 0 0 empty empty empty 0 -9 0 12 #fcfcfc #000000 #000000 0 1;
#X obj 1231 132 vsl 19 162 0 1 0 0 empty empty empty 0 -9 0 12 #fcfcfc #000000 #000000 0 1;
#X obj 897 55 route slider1;
#X obj 1007 55 route slider2;
#X obj 1122 54 route slider3;
#X obj 1231 54 route slider4;
#X obj 1469 21 r input;
#X floatatom 1386 95 5 0 0 0 - - - 0;
#X obj 1386 132 vsl 19 162 0 1 0 0 empty empty empty 0 -9 0 12 #fcfcfc #000000 #000000 0 1;
#X obj 1460 154 hsl 162 19 0 1 0 0 empty empty empty -2 -10 0 12 #fcfcfc #000000 #000000 0 1;
#X floatatom 1506 93 5 0 0 0 - - - 0;
#X obj 1386 54 route slider2Dy;
#X obj 1506 54 route slider2Dx;
#X obj 1663 136 tgl 19 0 empty empty empty 0 -10 0 12 #fcfcfc #000000 #000000 0 1;
#X floatatom 1663 96 5 0 0 0 - - - 0;
#X obj 1801 136 tgl 19 0 empty empty empty 0 -10 0 12 #fcfcfc #000000 #000000 0 1;
#X floatatom 1801 96 5 0 0 0 - - - 0;
#X obj 1905 15 r input;
#X obj 1938 136 tgl 19 0 empty empty empty 0 -10 0 12 #fcfcfc #000000 #000000 0 1;
#X floatatom 1938 96 5 0 0 0 - - - 0;
#X obj 2073 136 tgl 19 0 empty empty empty 0 -10 0 12 #fcfcfc #000000 #000000 0 1;
#X floatatom 2073 96 5 0 0 0 - - - 0;
#X obj 1663 55 route gridToggle1;
#X obj 1801 55 route gridToggle2;
#X obj 1938 55 route gridToggle3;
#X obj 2073 55 route gridToggle4;
#X floatatom 2222 96 5 0 0 0 - - - 0;
#X floatatom 2360 96 5 0 0 0 - - - 0;
#X obj 2465 16 r input;
#X floatatom 2497 96 5 0 0 0 - - - 0;
#X floatatom 2632 96 5 0 0 0 - - - 0;
#X obj 2222 55 route gridButton1;
#X obj 2360 55 route gridButton2;
#X obj 2497 55 route gridButton3;
#X obj 2632 55 route gridButton4;
#X obj 2222 141 bng 19 250 50 0 empty empty empty 0 -10 0 12 #fcfcfc #000000 #000000;
#X obj 2360 139 bng 19 250 50 0 empty empty empty 0 -10 0 12 #fcfcfc #000000 #000000;
#X obj 2497 138 bng 19 250 50 0 empty empty empty 0 -10 0 12 #fcfcfc #000000 #000000;
#X obj 2632 138 bng 19 250 50 0 empty empty empty 0 -10 0 12 #fcfcfc #000000 #000000;
#X connect 0 0 1 0;
#X connect 1 0 9 0;
#X connect 2 0 0 0;
#X connect 5 0 7 0;
#X connect 7 0 6 0;
#X connect 7 0 6 1;
#X connect 8 0 4 0;
#X connect 8 0 12 0;
#X connect 9 0 8 0;
#X connect 10 0 3 0;
#X connect 11 0 10 0;
#X connect 14 0 13 0;
#X connect 15 0 16 0;
#X connect 15 0 11 0;
#X connect 15 0 19 0;
#X connect 16 0 14 0;
#X connect 18 0 17 0;
#X connect 19 0 18 0;
#X connect 20 0 27 0;
#X connect 21 0 28 0;
#X connect 22 0 24 0;
#X connect 22 0 25 0;
#X connect 22 0 26 0;
#X connect 23 0 29 0;
#X connect 24 0 20 0;
#X connect 25 0 21 0;
#X connect 26 0 23 0;
#X connect 30 0 35 0;
#X connect 31 0 36 0;
#X connect 32 0 39 0;
#X connect 32 0 40 0;
#X connect 32 0 41 0;
#X connect 32 0 42 0;
#X connect 33 0 37 0;
#X connect 34 0 38 0;
#X connect 39 0 30 0;
#X connect 40 0 31 0;
#X connect 41 0 33 0;
#X connect 42 0 34 0;
#X connect 43 0 48 0;
#X connect 43 0 49 0;
#X connect 44 0 45 0;
#X connect 47 0 46 0;
#X connect 48 0 44 0;
#X connect 49 0 47 0;
#X connect 51 0 50 0;
#X connect 53 0 52 0;
#X connect 54 0 59 0;
#X connect 54 0 60 0;
#X connect 54 0 61 0;
#X connect 54 0 62 0;
#X connect 56 0 55 0;
#X connect 58 0 57 0;
#X connect 59 0 51 0;
#X connect 60 0 53 0;
#X connect 61 0 56 0;
#X connect 62 0 58 0;
#X connect 63 0 72 0;
#X connect 64 0 73 0;
#X connect 65 0 68 0;
#X connect 65 0 69 0;
#X connect 65 0 70 0;
#X connect 65 0 71 0;
#X connect 66 0 74 0;
#X connect 67 0 75 0;
#X connect 68 0 63 0;
#X connect 69 0 64 0;
#X connect 70 0 66 0;
#X connect 71 0 67 0;
