#N canvas 3 381 1366 680 12;
#X obj 36 54 netreceive -u -b;
#X obj 36 87 oscparse;
#X msg 36 24 listen 2002;
#X obj 214 139 tgl 19 0 empty empty empty 0 -10 0 12 #fcfcfc #000000 #000000 0 1;
#X obj 112 192 print;
#X obj 38 491 dac~ 1 2;
#X obj 36 156 route oscControl;
#X obj 36 121 list trim;
#X floatatom 214 99 5 0 0 0 - - - 0;
#X obj 214 58 route toggle1;
#X obj 36 192 s input;
#X obj 324 139 tgl 19 0 empty empty empty 0 -10 0 12 #fcfcfc #000000 #000000 0 1;
#X floatatom 324 99 5 0 0 0 - - - 0;
#X obj 324 24 r input;
#X obj 324 58 route toggle2;
#X obj 439 139 tgl 19 0 empty empty empty 0 -10 0 12 #fcfcfc #000000 #000000 0 1;
#X floatatom 439 99 5 0 0 0 - - - 0;
#X obj 439 58 route toggle3;
#X floatatom 558 98 5 0 0 0 - - - 0;
#X floatatom 668 98 5 0 0 0 - - - 0;
#X obj 668 23 r input;
#X floatatom 783 98 5 0 0 0 - - - 0;
#X obj 558 57 route button1;
#X obj 668 57 route button2;
#X obj 783 57 route button3;
#X obj 558 138 bng 19 250 50 0 empty empty empty 0 -10 0 12 #fcfcfc #000000 #000000;
#X obj 668 137 bng 19 250 50 0 empty empty empty 0 -10 0 12 #fcfcfc #000000 #000000;
#X obj 783 136 bng 19 250 50 0 empty empty empty 0 -10 0 12 #fcfcfc #000000 #000000;
#X floatatom 897 96 5 0 0 0 - - - 0;
#X floatatom 1007 96 5 0 0 0 - - - 0;
#X obj 1093 16 r input;
#X floatatom 1122 96 5 0 0 0 - - - 0;
#X floatatom 1231 95 5 0 0 0 - - - 0;
#X obj 897 131 vsl 19 162 0 1 0 0 empty empty empty 0 -9 0 12 #fcfcfc #000000 #000000 0 1;
#X obj 897 55 route slider1;
#X obj 1007 55 route slider2;
#X obj 1122 54 route slider3;
#X obj 1231 54 route slider4;
#X obj 1469 21 r input;
#X floatatom 1386 95 5 0 0 0 - - - 0;
#X obj 1386 132 vsl 19 162 0 1 0 0 empty empty empty 0 -9 0 12 #fcfcfc #000000 #000000 0 1;
#X obj 1460 154 hsl 162 19 0 1 0 0 empty empty empty -2 -10 0 12 #fcfcfc #000000 #000000 0 1;
#X floatatom 1506 93 5 0 0 0 - - - 0;
#X obj 1386 54 route slider2Dy;
#X obj 1506 54 route slider2Dx;
#X obj 1663 136 tgl 19 0 empty empty empty 0 -10 0 12 #fcfcfc #000000 #000000 0 1;
#X floatatom 1663 96 5 0 0 0 - - - 0;
#X obj 1801 136 tgl 19 0 empty empty empty 0 -10 0 12 #fcfcfc #000000 #000000 0 1;
#X floatatom 1801 96 5 0 0 0 - - - 0;
#X obj 1905 15 r input;
#X obj 1938 136 tgl 19 0 empty empty empty 0 -10 0 12 #fcfcfc #000000 #000000 0 1;
#X floatatom 1938 96 5 0 0 0 - - - 0;
#X obj 2073 136 tgl 19 0 empty empty empty 0 -10 0 12 #fcfcfc #000000 #000000 0 1;
#X floatatom 2073 96 5 0 0 0 - - - 0;
#X obj 1663 55 route gridToggle1;
#X obj 1801 55 route gridToggle2;
#X obj 1938 55 route gridToggle3;
#X obj 2073 55 route gridToggle4;
#X floatatom 2222 96 5 0 0 0 - - - 0;
#X floatatom 2360 96 5 0 0 0 - - - 0;
#X obj 2465 16 r input;
#X floatatom 2497 96 5 0 0 0 - - - 0;
#X floatatom 2632 96 5 0 0 0 - - - 0;
#X obj 2222 55 route gridButton1;
#X obj 2360 55 route gridButton2;
#X obj 2497 55 route gridButton3;
#X obj 2632 55 route gridButton4;
#X obj 2222 141 bng 19 250 50 0 empty empty empty 0 -10 0 12 #fcfcfc #000000 #000000;
#X obj 2360 139 bng 19 250 50 0 empty empty empty 0 -10 0 12 #fcfcfc #000000 #000000;
#X obj 2497 138 bng 19 250 50 0 empty empty empty 0 -10 0 12 #fcfcfc #000000 #000000;
#X obj 2632 138 bng 19 250 50 0 empty empty empty 0 -10 0 12 #fcfcfc #000000 #000000;
#X obj 38 433 *~;
#X obj 2222 180 t b b;
#X obj 2222 238 line~;
#X obj 2222 296 *~;
#X msg 2222 209 1 \, 0 500;
#X obj 56 401 r volume;
#X obj 2360 179 t b b;
#X obj 2360 237 line~;
#X obj 2360 295 *~;
#X msg 2360 208 1 \, 0 500;
#X obj 2497 177 t b b;
#X obj 2497 235 line~;
#X obj 2497 293 *~;
#X msg 2497 206 1 \, 0 500;
#X obj 2632 177 t b b;
#X obj 2632 235 line~;
#X obj 2632 293 *~;
#X msg 2632 206 1 \, 0 500;
#X floatatom 2221 451 5 0 0 0 - - - 0;
#X floatatom 2359 451 5 0 0 0 - - - 0;
#X obj 2464 371 r input;
#X floatatom 2496 451 5 0 0 0 - - - 0;
#X floatatom 2631 451 5 0 0 0 - - - 0;
#X obj 2221 496 bng 19 250 50 0 empty empty empty 0 -10 0 12 #fcfcfc #000000 #000000;
#X obj 2359 494 bng 19 250 50 0 empty empty empty 0 -10 0 12 #fcfcfc #000000 #000000;
#X obj 2496 493 bng 19 250 50 0 empty empty empty 0 -10 0 12 #fcfcfc #000000 #000000;
#X obj 2631 493 bng 19 250 50 0 empty empty empty 0 -10 0 12 #fcfcfc #000000 #000000;
#X obj 2221 535 t b b;
#X obj 2221 593 line~;
#X obj 2221 651 *~;
#X msg 2221 564 1 \, 0 500;
#X obj 2359 534 t b b;
#X obj 2359 592 line~;
#X obj 2359 650 *~;
#X msg 2359 563 1 \, 0 500;
#X obj 2496 532 t b b;
#X obj 2496 590 line~;
#X obj 2496 648 *~;
#X msg 2496 561 1 \, 0 500;
#X obj 2631 532 t b b;
#X obj 2631 590 line~;
#X obj 2631 648 *~;
#X msg 2631 561 1 \, 0 500;
#X obj 2221 410 route gridButton5;
#X obj 2359 410 route gridButton6;
#X obj 2496 410 route gridButton7;
#X obj 2631 410 route gridButton8;
#X obj 578 325 delwrite~ eco 20000;
#X obj 558 427 delread~ eco;
#X obj 505 246 noise~;
#X obj 558 169 t b b;
#X msg 636 203 1, f 2;
#X obj 558 203 delay 50;
#X msg 558 245 0;
#X obj 540 295 *~;
#X obj 593 483 *~;
#X obj 541 624 +~;
#X obj 559 590 *~;
#X obj 897 313 s volume;
#X obj 1007 131 vsl 19 162 0 1 0 0 empty empty empty 0 -9 0 12 #fcfcfc #000000 #000000 0 1;
#X obj 1122 131 vsl 19 162 0 1 0 0 empty empty empty 0 -9 0 12 #fcfcfc #000000 #000000 0 1;
#X obj 1231 130 vsl 19 162 0 1 0 0 empty empty empty 0 -9 0 12 #fcfcfc #000000 #000000 0 1;
#X obj 1007 313 s reps;
#X obj 611 452 r reps;
#X obj 1122 313 s delay;
#X obj 577 558 r delay;
#X obj 1231 311 s delayTime;
#X obj 558 360 r delayTime;
#X obj 558 395 * 500;
#X obj 593 519 s~ message1;
#X obj 577 294 r~ message1;
#X obj 2222 335 throw~ output;
#X obj 541 662 throw~ output;
#X obj 2360 334 throw~ output;
#X obj 2497 332 throw~ output;
#X obj 2632 332 throw~ output;
#X obj 2631 687 throw~ output;
#X obj 2496 687 throw~ output;
#X obj 2359 688 throw~ output;
#X obj 2221 690 throw~ output;
#X obj 38 272 catch~ output;
#X obj 1663 204 bang;
#X obj 1663 176 metro 500;
#X msg 1663 232 0 \, 1 200;
#X obj 1663 261 line~;
#X obj 1663 369 -~ 0.25;
#X obj 1663 398 cos~;
#X obj 1663 329 *~ 20;
#X obj 1663 295 sqrt~;
#X obj 1663 432 lop~ 1000;
#X obj 1663 467 throw~ output;
#X obj 1801 204 bang;
#X obj 1801 176 metro 500;
#X obj 1938 202 bang;
#X obj 1938 174 metro 500;
#X obj 1664 552 t b b;
#X msg 1664 581 1 \, 0 100;
#X obj 1664 610 line~;
#X obj 1664 639 pow~ 4;
#X obj 1664 668 *~;
#X obj 1796 610 line~;
#X obj 1796 639 pow~ 4;
#X obj 1796 668 *~;
#X obj 1900 586 noise~;
#X msg 1796 581 1 \, 0 200;
#X obj 1664 697 +~;
#X obj 1900 615 hip~ 3000;
#X obj 1900 644 bp~ 5000 2;
#X obj 1664 726 lop~ 4000;
#X obj 1727 639 osc~ 200;
#X obj 1664 760 throw~ output;
#X obj 1666 985 line~;
#X obj 1666 1014 pow~ 4;
#X obj 1666 1043 *~;
#X obj 1744 1014 hip~ 8000;
#X obj 1744 985 hip~ 8000;
#X obj 1745 803 phasor~ 350;
#X obj 1745 832 *~ 2;
#X obj 1745 861 -~ 1;
#X obj 1834 832 *~ 2;
#X obj 1834 861 -~ 1;
#X obj 1834 803 phasor~ 800;
#X obj 1744 898 +~;
#X obj 1744 956 hip~ 8000;
#X obj 1666 1072 *~ 4;
#X obj 1783 897 noise~;
#X obj 1783 926 /~ 4;
#X msg 1666 956 1 \, 0 100;
#X obj 1744 927 +~;
#X obj 1664 517 r snare;
#X obj 1666 926 r hithat;
#X obj 1666 1106 throw~ output;
#X obj 1801 236 s snare;
#X obj 1938 236 s hithat;
#X obj 2803 128 bng 19 250 50 0 empty empty empty 0 -10 0 12 #fcfcfc #000000 #000000;
#X obj 2241 265 osc~;
#X floatatom 2210 802 5 0 0 0 - - - 0;
#X floatatom 2348 802 5 0 0 0 - - - 0;
#X obj 2453 722 r input;
#X floatatom 2485 802 5 0 0 0 - - - 0;
#X floatatom 2620 802 5 0 0 0 - - - 0;
#X obj 2210 847 bng 19 250 50 0 empty empty empty 0 -10 0 12 #fcfcfc #000000 #000000;
#X obj 2348 845 bng 19 250 50 0 empty empty empty 0 -10 0 12 #fcfcfc #000000 #000000;
#X obj 2485 844 bng 19 250 50 0 empty empty empty 0 -10 0 12 #fcfcfc #000000 #000000;
#X obj 2620 844 bng 19 250 50 0 empty empty empty 0 -10 0 12 #fcfcfc #000000 #000000;
#X obj 2210 886 t b b;
#X obj 2210 944 line~;
#X obj 2210 1002 *~;
#X msg 2210 915 1 \, 0 500;
#X obj 2348 885 t b b;
#X obj 2348 943 line~;
#X obj 2348 1001 *~;
#X msg 2348 914 1 \, 0 500;
#X obj 2485 883 t b b;
#X obj 2485 941 line~;
#X obj 2485 999 *~;
#X msg 2485 912 1 \, 0 500;
#X obj 2620 883 t b b;
#X obj 2620 941 line~;
#X obj 2620 999 *~;
#X msg 2620 912 1 \, 0 500;
#X floatatom 2209 1157 5 0 0 0 - - - 0;
#X floatatom 2347 1157 5 0 0 0 - - - 0;
#X obj 2452 1077 r input;
#X floatatom 2484 1157 5 0 0 0 - - - 0;
#X floatatom 2619 1157 5 0 0 0 - - - 0;
#X obj 2209 1202 bng 19 250 50 0 empty empty empty 0 -10 0 12 #fcfcfc #000000 #000000;
#X obj 2347 1200 bng 19 250 50 0 empty empty empty 0 -10 0 12 #fcfcfc #000000 #000000;
#X obj 2484 1199 bng 19 250 50 0 empty empty empty 0 -10 0 12 #fcfcfc #000000 #000000;
#X obj 2619 1199 bng 19 250 50 0 empty empty empty 0 -10 0 12 #fcfcfc #000000 #000000;
#X obj 2209 1241 t b b;
#X obj 2209 1299 line~;
#X obj 2209 1357 *~;
#X msg 2209 1270 1 \, 0 500;
#X obj 2347 1240 t b b;
#X obj 2347 1298 line~;
#X obj 2347 1356 *~;
#X msg 2347 1269 1 \, 0 500;
#X obj 2484 1238 t b b;
#X obj 2484 1296 line~;
#X obj 2484 1354 *~;
#X msg 2484 1267 1 \, 0 500;
#X obj 2619 1238 t b b;
#X obj 2619 1296 line~;
#X obj 2619 1354 *~;
#X msg 2619 1267 1 \, 0 500;
#X obj 2210 1041 throw~ output;
#X obj 2348 1040 throw~ output;
#X obj 2485 1038 throw~ output;
#X obj 2620 1038 throw~ output;
#X obj 2619 1393 throw~ output;
#X obj 2484 1393 throw~ output;
#X obj 2347 1394 throw~ output;
#X obj 2209 1396 throw~ output;
#X obj 2229 971 osc~;
#X obj 2228 1326 osc~;
#X obj 2366 1325 osc~;
#X obj 2503 1323 osc~;
#X obj 2638 1323 osc~;
#X obj 2639 968 osc~;
#X obj 2504 968 osc~;
#X obj 2367 970 osc~;
#X obj 2254 944 r fr21;
#X obj 2398 943 r fr22;
#X obj 2535 940 r fr23;
#X obj 2679 939 r fr24;
#X obj 2256 1301 r fr25;
#X obj 2401 1300 r fr26;
#X obj 2537 1297 r fr27;
#X obj 2681 1296 r fr28;
#X obj 2210 761 route gridButton9;
#X obj 2348 761 route gridButton10;
#X obj 2485 761 route gridButton11;
#X obj 2620 761 route gridButton12;
#X obj 2209 1116 route gridButton13;
#X obj 2347 1116 route gridButton14;
#X obj 2484 1116 route gridButton15;
#X obj 2619 1116 route gridButton16;
#X obj 2379 264 osc~;
#X obj 2516 262 osc~;
#X obj 2651 262 osc~;
#X obj 2240 620 osc~;
#X obj 2378 619 osc~;
#X obj 2515 617 osc~;
#X obj 2650 617 osc~;
#X obj 2803 94 route gridButton17;
#X obj 2808 317 s fr11;
#X obj 2691 233 r fr14;
#X obj 2547 234 r fr13;
#X obj 2412 236 r fr12;
#X obj 2266 238 r fr11;
#X obj 2268 595 r fr15;
#X obj 2412 594 r fr16;
#X obj 2549 591 r fr17;
#X obj 2693 589 r fr18;
#X obj 2949 128 bng 19 250 50 0 empty empty empty 0 -10 0 12 #fcfcfc #000000 #000000;
#X obj 3058 38 r input;
#X obj 3094 129 bng 19 250 50 0 empty empty empty 0 -10 0 12 #fcfcfc #000000 #000000;
#X msg 3094 162 4;
#X obj 3236 130 bng 19 250 50 0 empty empty empty 0 -10 0 12 #fcfcfc #000000 #000000;
#X msg 3236 163 8;
#X obj 2949 94 route gridButton18;
#X obj 3094 95 route gridButton19;
#X obj 3236 96 route gridButton20;
#X obj 2876 318 s fr12;
#X obj 2808 282 * 32;
#X msg 2803 161 1;
#X msg 2949 161 2;
#X obj 2876 283 * 36;
#X obj 2936 283 * 41;
#X obj 3004 284 * 43;
#X obj 3066 284 * 49;
#X obj 3134 284 * 55;
#X obj 3194 285 * 61;
#X obj 3262 286 * 65;
#X obj 2936 318 s fr13;
#X obj 3004 319 s fr14;
#X obj 3066 319 s fr15;
#X obj 3134 320 s fr16;
#X obj 3194 320 s fr17;
#X obj 3262 321 s fr18;
#X obj 2792 797 bng 19 250 50 0 empty empty empty 0 -10 0 12 #fcfcfc #000000 #000000;
#X obj 2938 797 bng 19 250 50 0 empty empty empty 0 -10 0 12 #fcfcfc #000000 #000000;
#X obj 3047 707 r input;
#X obj 3083 798 bng 19 250 50 0 empty empty empty 0 -10 0 12 #fcfcfc #000000 #000000;
#X msg 3083 831 4;
#X obj 3225 799 bng 19 250 50 0 empty empty empty 0 -10 0 12 #fcfcfc #000000 #000000;
#X msg 3225 832 8;
#X msg 2792 830 1;
#X msg 2938 830 2;
#X obj 2792 763 route gridButton21;
#X obj 2938 763 route gridButton22;
#X obj 3083 765 route gridButton23;
#X obj 3225 765 route gridButton24;
#X obj 2790 949 * 523;
#X obj 2858 950 * 587;
#X obj 2918 950 * 659;
#X obj 2986 951 * 698;
#X obj 3048 951 * 783;
#X obj 3116 951 * 880;
#X obj 3176 952 * 987;
#X obj 3244 953 * 1046;
#X obj 2790 984 s fr21;
#X obj 2858 985 s fr22;
#X obj 2918 985 s fr23;
#X obj 2986 986 s fr24;
#X obj 3048 986 s fr25;
#X obj 3116 987 s fr26;
#X obj 3176 987 s fr27;
#X obj 3244 988 s fr28;
#X floatatom 3040 225 5 0 0 0 - - - 0;
#X floatatom 3016 885 5 0 0 0 - - - 0;
#X obj 38 323 lop~;
#X obj 37 376 hip~;
#X obj 62 350 r hi;
#X obj 63 296 r lo;
#X obj 1386 309 * 5000;
#X obj 1457 189 * 5000;
#X obj 1386 347 s hi;
#X obj 1457 229 s lo;
#X obj 256 565 lop~ 500;
#X obj 256 331 bng 19 250 50 0 empty empty empty 0 -10 0 12 #fcfcfc #000000 #000000;
#X obj 256 364 t b b;
#X obj 256 422 line~;
#X msg 256 393 1 \, 0 500;
#X obj 255 605 throw~ output;
#X obj 256 527 osc~;
#X obj 256 490 +~ 0;
#X obj 333 292 vsl 19 162 0 1000 0 0 empty empty empty 0 -9 0 12 #fcfcfc #000000 #000000 0 1;
#X obj 256 457 *~ 1;
#X text 244 255 sonido exótico;
#X connect 0 0 1 0;
#X connect 1 0 7 0;
#X connect 2 0 0 0;
#X connect 6 0 4 0;
#X connect 6 0 10 0;
#X connect 7 0 6 0;
#X connect 8 0 3 0;
#X connect 9 0 8 0;
#X connect 12 0 11 0;
#X connect 13 0 14 0;
#X connect 13 0 9 0;
#X connect 13 0 17 0;
#X connect 14 0 12 0;
#X connect 16 0 15 0;
#X connect 17 0 16 0;
#X connect 18 0 25 0;
#X connect 19 0 26 0;
#X connect 20 0 22 0;
#X connect 20 0 23 0;
#X connect 20 0 24 0;
#X connect 21 0 27 0;
#X connect 22 0 18 0;
#X connect 23 0 19 0;
#X connect 24 0 21 0;
#X connect 25 0 121 0;
#X connect 28 0 33 0;
#X connect 29 0 130 0;
#X connect 30 0 34 0;
#X connect 30 0 35 0;
#X connect 30 0 36 0;
#X connect 30 0 37 0;
#X connect 31 0 131 0;
#X connect 32 0 132 0;
#X connect 33 0 129 0;
#X connect 34 0 28 0;
#X connect 35 0 29 0;
#X connect 36 0 31 0;
#X connect 37 0 32 0;
#X connect 38 0 43 0;
#X connect 38 0 44 0;
#X connect 39 0 40 0;
#X connect 40 0 367 0;
#X connect 41 0 368 0;
#X connect 42 0 41 0;
#X connect 43 0 39 0;
#X connect 44 0 42 0;
#X connect 45 0 153 0;
#X connect 46 0 45 0;
#X connect 47 0 163 0;
#X connect 48 0 47 0;
#X connect 49 0 54 0;
#X connect 49 0 55 0;
#X connect 49 0 56 0;
#X connect 49 0 57 0;
#X connect 50 0 165 0;
#X connect 51 0 50 0;
#X connect 53 0 52 0;
#X connect 54 0 46 0;
#X connect 55 0 48 0;
#X connect 56 0 51 0;
#X connect 57 0 53 0;
#X connect 58 0 67 0;
#X connect 59 0 68 0;
#X connect 60 0 63 0;
#X connect 60 0 64 0;
#X connect 60 0 65 0;
#X connect 60 0 66 0;
#X connect 61 0 69 0;
#X connect 62 0 70 0;
#X connect 63 0 58 0;
#X connect 64 0 59 0;
#X connect 65 0 61 0;
#X connect 66 0 62 0;
#X connect 67 0 72 0;
#X connect 68 0 77 0;
#X connect 69 0 81 0;
#X connect 70 0 85 0;
#X connect 71 0 5 0;
#X connect 71 0 5 1;
#X connect 72 0 75 0;
#X connect 73 0 74 0;
#X connect 74 0 142 0;
#X connect 75 0 73 0;
#X connect 76 0 71 1;
#X connect 77 0 80 0;
#X connect 78 0 79 0;
#X connect 79 0 144 0;
#X connect 80 0 78 0;
#X connect 81 0 84 0;
#X connect 82 0 83 0;
#X connect 83 0 145 0;
#X connect 84 0 82 0;
#X connect 85 0 88 0;
#X connect 86 0 87 0;
#X connect 87 0 146 0;
#X connect 88 0 86 0;
#X connect 89 0 94 0;
#X connect 90 0 95 0;
#X connect 91 0 114 0;
#X connect 91 0 115 0;
#X connect 91 0 116 0;
#X connect 91 0 117 0;
#X connect 92 0 96 0;
#X connect 93 0 97 0;
#X connect 94 0 98 0;
#X connect 95 0 102 0;
#X connect 96 0 106 0;
#X connect 97 0 110 0;
#X connect 98 0 101 0;
#X connect 99 0 100 0;
#X connect 100 0 150 0;
#X connect 101 0 99 0;
#X connect 102 0 105 0;
#X connect 103 0 104 0;
#X connect 104 0 149 0;
#X connect 105 0 103 0;
#X connect 106 0 109 0;
#X connect 107 0 108 0;
#X connect 108 0 148 0;
#X connect 109 0 107 0;
#X connect 110 0 113 0;
#X connect 111 0 112 0;
#X connect 112 0 147 0;
#X connect 113 0 111 0;
#X connect 114 0 89 0;
#X connect 115 0 90 0;
#X connect 116 0 92 0;
#X connect 117 0 93 0;
#X connect 119 0 126 0;
#X connect 119 0 128 0;
#X connect 120 0 125 0;
#X connect 121 0 123 0;
#X connect 121 1 122 0;
#X connect 122 0 125 1;
#X connect 123 0 124 0;
#X connect 124 0 125 1;
#X connect 125 0 118 0;
#X connect 125 0 127 0;
#X connect 126 0 140 0;
#X connect 127 0 143 0;
#X connect 128 0 127 1;
#X connect 130 0 133 0;
#X connect 131 0 135 0;
#X connect 132 0 137 0;
#X connect 134 0 126 1;
#X connect 136 0 128 1;
#X connect 138 0 139 0;
#X connect 139 0 119 0;
#X connect 141 0 118 0;
#X connect 151 0 363 0;
#X connect 152 0 154 0;
#X connect 153 0 152 0;
#X connect 154 0 155 0;
#X connect 155 0 159 0;
#X connect 156 0 157 0;
#X connect 157 0 160 0;
#X connect 158 0 156 0;
#X connect 159 0 158 0;
#X connect 160 0 161 0;
#X connect 162 0 203 0;
#X connect 163 0 162 0;
#X connect 164 0 204 0;
#X connect 165 0 164 0;
#X connect 166 0 167 0;
#X connect 166 1 175 0;
#X connect 167 0 168 0;
#X connect 168 0 169 0;
#X connect 169 0 170 0;
#X connect 170 0 176 0;
#X connect 171 0 172 0;
#X connect 172 0 173 0;
#X connect 173 0 176 1;
#X connect 174 0 177 0;
#X connect 175 0 171 0;
#X connect 176 0 179 0;
#X connect 177 0 178 0;
#X connect 178 0 173 1;
#X connect 179 0 181 0;
#X connect 180 0 170 1;
#X connect 182 0 183 0;
#X connect 183 0 184 0;
#X connect 184 0 195 0;
#X connect 185 0 184 1;
#X connect 186 0 185 0;
#X connect 187 0 188 0;
#X connect 188 0 189 0;
#X connect 189 0 193 0;
#X connect 190 0 191 0;
#X connect 191 0 193 1;
#X connect 192 0 190 0;
#X connect 193 0 199 0;
#X connect 194 0 186 0;
#X connect 195 0 202 0;
#X connect 196 0 197 0;
#X connect 197 0 199 1;
#X connect 198 0 182 0;
#X connect 199 0 194 0;
#X connect 200 0 166 0;
#X connect 201 0 198 0;
#X connect 205 0 317 0;
#X connect 206 0 74 1;
#X connect 207 0 212 0;
#X connect 208 0 213 0;
#X connect 209 0 281 0;
#X connect 209 0 282 0;
#X connect 209 0 283 0;
#X connect 209 0 284 0;
#X connect 210 0 214 0;
#X connect 211 0 215 0;
#X connect 212 0 216 0;
#X connect 213 0 220 0;
#X connect 214 0 224 0;
#X connect 215 0 228 0;
#X connect 216 0 219 0;
#X connect 217 0 218 0;
#X connect 218 0 257 0;
#X connect 219 0 217 0;
#X connect 220 0 223 0;
#X connect 221 0 222 0;
#X connect 222 0 258 0;
#X connect 223 0 221 0;
#X connect 224 0 227 0;
#X connect 225 0 226 0;
#X connect 226 0 259 0;
#X connect 227 0 225 0;
#X connect 228 0 231 0;
#X connect 229 0 230 0;
#X connect 230 0 260 0;
#X connect 231 0 229 0;
#X connect 232 0 237 0;
#X connect 233 0 238 0;
#X connect 234 0 285 0;
#X connect 234 0 286 0;
#X connect 234 0 287 0;
#X connect 234 0 288 0;
#X connect 235 0 239 0;
#X connect 236 0 240 0;
#X connect 237 0 241 0;
#X connect 238 0 245 0;
#X connect 239 0 249 0;
#X connect 240 0 253 0;
#X connect 241 0 244 0;
#X connect 242 0 243 0;
#X connect 243 0 264 0;
#X connect 244 0 242 0;
#X connect 245 0 248 0;
#X connect 246 0 247 0;
#X connect 247 0 263 0;
#X connect 248 0 246 0;
#X connect 249 0 252 0;
#X connect 250 0 251 0;
#X connect 251 0 262 0;
#X connect 252 0 250 0;
#X connect 253 0 256 0;
#X connect 254 0 255 0;
#X connect 255 0 261 0;
#X connect 256 0 254 0;
#X connect 265 0 218 1;
#X connect 266 0 243 1;
#X connect 267 0 247 1;
#X connect 268 0 251 1;
#X connect 269 0 255 1;
#X connect 270 0 230 1;
#X connect 271 0 226 1;
#X connect 272 0 222 1;
#X connect 273 0 265 0;
#X connect 274 0 272 0;
#X connect 275 0 271 0;
#X connect 276 0 270 0;
#X connect 277 0 266 0;
#X connect 278 0 267 0;
#X connect 279 0 268 0;
#X connect 280 0 269 0;
#X connect 281 0 207 0;
#X connect 282 0 208 0;
#X connect 283 0 210 0;
#X connect 284 0 211 0;
#X connect 285 0 232 0;
#X connect 286 0 233 0;
#X connect 287 0 235 0;
#X connect 288 0 236 0;
#X connect 289 0 79 1;
#X connect 290 0 83 1;
#X connect 291 0 87 1;
#X connect 292 0 100 1;
#X connect 293 0 104 1;
#X connect 294 0 108 1;
#X connect 295 0 112 1;
#X connect 296 0 205 0;
#X connect 298 0 291 0;
#X connect 299 0 290 0;
#X connect 300 0 289 0;
#X connect 301 0 206 0;
#X connect 302 0 292 0;
#X connect 303 0 293 0;
#X connect 304 0 294 0;
#X connect 305 0 295 0;
#X connect 306 0 318 0;
#X connect 307 0 312 0;
#X connect 307 0 296 0;
#X connect 307 0 313 0;
#X connect 307 0 314 0;
#X connect 308 0 309 0;
#X connect 309 0 361 0;
#X connect 310 0 311 0;
#X connect 311 0 361 0;
#X connect 312 0 306 0;
#X connect 313 0 308 0;
#X connect 314 0 310 0;
#X connect 316 0 297 0;
#X connect 317 0 361 0;
#X connect 318 0 361 0;
#X connect 319 0 315 0;
#X connect 320 0 326 0;
#X connect 321 0 327 0;
#X connect 322 0 328 0;
#X connect 323 0 329 0;
#X connect 324 0 330 0;
#X connect 325 0 331 0;
#X connect 332 0 339 0;
#X connect 333 0 340 0;
#X connect 334 0 341 0;
#X connect 334 0 342 0;
#X connect 334 0 343 0;
#X connect 334 0 344 0;
#X connect 335 0 336 0;
#X connect 336 0 362 0;
#X connect 337 0 338 0;
#X connect 338 0 362 0;
#X connect 339 0 362 0;
#X connect 340 0 362 0;
#X connect 341 0 332 0;
#X connect 342 0 333 0;
#X connect 343 0 335 0;
#X connect 344 0 337 0;
#X connect 345 0 353 0;
#X connect 346 0 354 0;
#X connect 347 0 355 0;
#X connect 348 0 356 0;
#X connect 349 0 357 0;
#X connect 350 0 358 0;
#X connect 351 0 359 0;
#X connect 352 0 360 0;
#X connect 361 0 316 0;
#X connect 361 0 319 0;
#X connect 361 0 320 0;
#X connect 361 0 321 0;
#X connect 361 0 322 0;
#X connect 361 0 323 0;
#X connect 361 0 324 0;
#X connect 361 0 325 0;
#X connect 362 0 345 0;
#X connect 362 0 346 0;
#X connect 362 0 347 0;
#X connect 362 0 348 0;
#X connect 362 0 349 0;
#X connect 362 0 350 0;
#X connect 362 0 351 0;
#X connect 362 0 352 0;
#X connect 363 0 364 0;
#X connect 364 0 71 0;
#X connect 365 0 364 1;
#X connect 366 0 363 1;
#X connect 367 0 369 0;
#X connect 368 0 370 0;
#X connect 371 0 376 0;
#X connect 372 0 373 0;
#X connect 373 0 375 0;
#X connect 374 0 380 0;
#X connect 375 0 374 0;
#X connect 377 0 371 0;
#X connect 378 0 377 0;
#X connect 379 0 380 1;
#X connect 380 0 378 0;
