#N canvas 666 78 1366 680 12;
#X obj 36 54 netreceive -u -b;
#X obj 36 87 oscparse;
#X msg 36 24 listen 2002;
#X obj 214 139 tgl 19 0 empty empty empty 0 -10 0 12 #fcfcfc #000000 #000000 0 1;
#X obj 112 192 print;
#X obj 40 377 dac~ 1 2;
#X obj 36 156 route oscControl;
#X obj 36 121 list trim;
#X floatatom 214 99 5 0 0 0 - - - 0;
#X obj 214 58 route toggle1;
#X obj 36 192 s input;
#X obj 324 139 tgl 19 0 empty empty empty 0 -10 0 12 #fcfcfc #000000 #000000 0 1;
#X floatatom 324 99 5 0 0 0 - - - 0;
#X obj 324 24 r input;
#X obj 324 58 route toggle2;
#X obj 439 139 tgl 19 0 empty empty empty 0 -10 0 12 #fcfcfc #000000 #000000 0 1;
#X floatatom 439 99 5 0 0 0 - - - 0;
#X obj 439 58 route toggle3;
#X floatatom 558 98 5 0 0 0 - - - 0;
#X floatatom 668 98 5 0 0 0 - - - 0;
#X obj 668 23 r input;
#X floatatom 783 98 5 0 0 0 - - - 0;
#X obj 558 57 route button1;
#X obj 668 57 route button2;
#X obj 783 57 route button3;
#X obj 558 138 bng 19 250 50 0 empty empty empty 0 -10 0 12 #fcfcfc #000000 #000000;
#X obj 668 137 bng 19 250 50 0 empty empty empty 0 -10 0 12 #fcfcfc #000000 #000000;
#X obj 783 136 bng 19 250 50 0 empty empty empty 0 -10 0 12 #fcfcfc #000000 #000000;
#X floatatom 897 96 5 0 0 0 - - - 0;
#X floatatom 1007 96 5 0 0 0 - - - 0;
#X obj 1093 16 r input;
#X floatatom 1122 96 5 0 0 0 - - - 0;
#X floatatom 1231 95 5 0 0 0 - - - 0;
#X obj 897 131 vsl 19 162 0 1 0 0 empty empty empty 0 -9 0 12 #fcfcfc #000000 #000000 0 1;
#X obj 897 55 route slider1;
#X obj 1007 55 route slider2;
#X obj 1122 54 route slider3;
#X obj 1231 54 route slider4;
#X obj 1469 21 r input;
#X floatatom 1386 95 5 0 0 0 - - - 0;
#X obj 1386 132 vsl 19 162 0 1 0 0 empty empty empty 0 -9 0 12 #fcfcfc #000000 #000000 0 1;
#X obj 1460 154 hsl 162 19 0 1 0 0 empty empty empty -2 -10 0 12 #fcfcfc #000000 #000000 0 1;
#X floatatom 1506 93 5 0 0 0 - - - 0;
#X obj 1386 54 route slider2Dy;
#X obj 1506 54 route slider2Dx;
#X obj 1663 136 tgl 19 0 empty empty empty 0 -10 0 12 #fcfcfc #000000 #000000 0 1;
#X floatatom 1663 96 5 0 0 0 - - - 0;
#X obj 1801 136 tgl 19 0 empty empty empty 0 -10 0 12 #fcfcfc #000000 #000000 0 1;
#X floatatom 1801 96 5 0 0 0 - - - 0;
#X obj 1905 15 r input;
#X obj 1938 136 tgl 19 0 empty empty empty 0 -10 0 12 #fcfcfc #000000 #000000 0 1;
#X floatatom 1938 96 5 0 0 0 - - - 0;
#X obj 2073 136 tgl 19 0 empty empty empty 0 -10 0 12 #fcfcfc #000000 #000000 0 1;
#X floatatom 2073 96 5 0 0 0 - - - 0;
#X obj 1663 55 route gridToggle1;
#X obj 1801 55 route gridToggle2;
#X obj 1938 55 route gridToggle3;
#X obj 2073 55 route gridToggle4;
#X floatatom 2222 96 5 0 0 0 - - - 0;
#X floatatom 2360 96 5 0 0 0 - - - 0;
#X obj 2465 16 r input;
#X floatatom 2497 96 5 0 0 0 - - - 0;
#X floatatom 2632 96 5 0 0 0 - - - 0;
#X obj 2222 55 route gridButton1;
#X obj 2360 55 route gridButton2;
#X obj 2497 55 route gridButton3;
#X obj 2632 55 route gridButton4;
#X obj 2222 141 bng 19 250 50 0 empty empty empty 0 -10 0 12 #fcfcfc #000000 #000000;
#X obj 2360 139 bng 19 250 50 0 empty empty empty 0 -10 0 12 #fcfcfc #000000 #000000;
#X obj 2497 138 bng 19 250 50 0 empty empty empty 0 -10 0 12 #fcfcfc #000000 #000000;
#X obj 2632 138 bng 19 250 50 0 empty empty empty 0 -10 0 12 #fcfcfc #000000 #000000;
#X obj 39 334 *~;
#X obj 2222 180 t b b;
#X obj 2222 238 line~;
#X obj 2222 296 *~;
#X obj 2241 265 osc~ 261;
#X msg 2222 209 1 \, 0 500;
#X obj 57 302 r volume;
#X obj 2360 179 t b b;
#X obj 2360 237 line~;
#X obj 2360 295 *~;
#X msg 2360 208 1 \, 0 500;
#X obj 2497 177 t b b;
#X obj 2497 235 line~;
#X obj 2497 293 *~;
#X msg 2497 206 1 \, 0 500;
#X obj 2632 177 t b b;
#X obj 2632 235 line~;
#X obj 2632 293 *~;
#X msg 2632 206 1 \, 0 500;
#X floatatom 2221 451 5 0 0 0 - - - 0;
#X floatatom 2359 451 5 0 0 0 - - - 0;
#X obj 2464 371 r input;
#X floatatom 2496 451 5 0 0 0 - - - 0;
#X floatatom 2631 451 5 0 0 0 - - - 0;
#X obj 2221 496 bng 19 250 50 0 empty empty empty 0 -10 0 12 #fcfcfc #000000 #000000;
#X obj 2359 494 bng 19 250 50 0 empty empty empty 0 -10 0 12 #fcfcfc #000000 #000000;
#X obj 2496 493 bng 19 250 50 0 empty empty empty 0 -10 0 12 #fcfcfc #000000 #000000;
#X obj 2631 493 bng 19 250 50 0 empty empty empty 0 -10 0 12 #fcfcfc #000000 #000000;
#X obj 2221 535 t b b;
#X obj 2221 593 line~;
#X obj 2221 651 *~;
#X msg 2221 564 1 \, 0 500;
#X obj 2359 534 t b b;
#X obj 2359 592 line~;
#X obj 2359 650 *~;
#X msg 2359 563 1 \, 0 500;
#X obj 2496 532 t b b;
#X obj 2496 590 line~;
#X obj 2496 648 *~;
#X msg 2496 561 1 \, 0 500;
#X obj 2631 532 t b b;
#X obj 2631 590 line~;
#X obj 2631 648 *~;
#X msg 2631 561 1 \, 0 500;
#X obj 2221 410 route gridButton5;
#X obj 2359 410 route gridButton6;
#X obj 2496 410 route gridButton7;
#X obj 2631 410 route gridButton8;
#X obj 2379 264 osc~ 293;
#X obj 2516 262 osc~ 329;
#X obj 2651 262 osc~ 349;
#X obj 2240 620 osc~ 391;
#X obj 2378 619 osc~ 440;
#X obj 2515 617 osc~ 494;
#X obj 2650 617 osc~ 523;
#X obj 578 325 delwrite~ eco 20000;
#X obj 558 427 delread~ eco;
#X obj 505 246 noise~;
#X obj 558 169 t b b;
#X msg 636 203 1, f 2;
#X obj 558 203 delay 50;
#X msg 558 245 0;
#X obj 540 295 *~;
#X obj 593 483 *~;
#X obj 541 624 +~;
#X obj 559 590 *~;
#X obj 897 313 s volume;
#X obj 1007 131 vsl 19 162 0 1 0 0 empty empty empty 0 -9 0 12 #fcfcfc #000000 #000000 0 1;
#X obj 1122 131 vsl 19 162 0 1 0 0 empty empty empty 0 -9 0 12 #fcfcfc #000000 #000000 0 1;
#X obj 1231 130 vsl 19 162 0 1 0 0 empty empty empty 0 -9 0 12 #fcfcfc #000000 #000000 0 1;
#X obj 1007 313 s reps;
#X obj 611 452 r reps;
#X obj 1122 313 s delay;
#X obj 577 558 r delay;
#X obj 1231 311 s delayTime;
#X obj 558 360 r delayTime;
#X obj 558 395 * 500;
#X obj 593 519 s~ message1;
#X obj 577 294 r~ message1;
#X obj 2222 335 throw~ output;
#X obj 541 662 throw~ output;
#X obj 2360 334 throw~ output;
#X obj 2497 332 throw~ output;
#X obj 2632 332 throw~ output;
#X obj 2631 687 throw~ output;
#X obj 2496 687 throw~ output;
#X obj 2359 688 throw~ output;
#X obj 2221 690 throw~ output;
#X obj 38 272 catch~ output;
#X obj 214 199 bang;
#X obj 214 171 metro 500;
#X msg 214 227 0 \, 1 200;
#X obj 214 256 line~;
#X obj 214 364 -~ 0.25;
#X obj 214 393 cos~;
#X obj 214 324 *~ 20;
#X obj 214 290 sqrt~;
#X obj 214 427 lop~ 1000;
#X obj 214 462 throw~ output;
#X obj 324 200 bang;
#X obj 324 172 metro 500;
#X obj 439 200 bang;
#X obj 439 172 metro 500;
#X obj 29 569 t b b;
#X msg 29 598 1 \, 0 100;
#X obj 29 627 line~;
#X obj 29 656 pow~ 4;
#X obj 29 685 *~;
#X obj 161 627 line~;
#X obj 161 656 pow~ 4;
#X obj 161 685 *~;
#X obj 265 603 noise~;
#X msg 161 598 1 \, 0 200;
#X obj 29 714 +~;
#X obj 265 632 hip~ 3000;
#X obj 265 661 bp~ 5000 2;
#X obj 29 743 lop~ 4000;
#X obj 92 656 osc~ 200;
#X obj 29 777 throw~ output;
#X obj 310 898 line~;
#X obj 310 927 pow~ 4;
#X obj 310 956 *~;
#X obj 388 927 hip~ 8000;
#X obj 388 898 hip~ 8000;
#X obj 389 716 phasor~ 350;
#X obj 389 745 *~ 2;
#X obj 389 774 -~ 1;
#X obj 478 745 *~ 2;
#X obj 478 774 -~ 1;
#X obj 478 716 phasor~ 800;
#X obj 388 811 +~;
#X obj 388 869 hip~ 8000;
#X obj 310 985 *~ 4;
#X obj 427 810 noise~;
#X obj 427 839 /~ 4;
#X msg 310 869 1 \, 0 100;
#X obj 388 840 +~;
#X obj 29 534 r snare;
#X obj 310 839 r hithat;
#X obj 310 1019 throw~ output;
#X obj 324 232 s snare;
#X obj 439 234 s hithat;
#X connect 0 0 1 0;
#X connect 1 0 7 0;
#X connect 2 0 0 0;
#X connect 3 0 161 0;
#X connect 6 0 4 0;
#X connect 6 0 10 0;
#X connect 7 0 6 0;
#X connect 8 0 3 0;
#X connect 9 0 8 0;
#X connect 11 0 171 0;
#X connect 12 0 11 0;
#X connect 13 0 14 0;
#X connect 13 0 9 0;
#X connect 13 0 17 0;
#X connect 14 0 12 0;
#X connect 15 0 173 0;
#X connect 16 0 15 0;
#X connect 17 0 16 0;
#X connect 18 0 25 0;
#X connect 19 0 26 0;
#X connect 20 0 22 0;
#X connect 20 0 23 0;
#X connect 20 0 24 0;
#X connect 21 0 27 0;
#X connect 22 0 18 0;
#X connect 23 0 19 0;
#X connect 24 0 21 0;
#X connect 25 0 129 0;
#X connect 28 0 33 0;
#X connect 29 0 138 0;
#X connect 30 0 34 0;
#X connect 30 0 35 0;
#X connect 30 0 36 0;
#X connect 30 0 37 0;
#X connect 31 0 139 0;
#X connect 32 0 140 0;
#X connect 33 0 137 0;
#X connect 34 0 28 0;
#X connect 35 0 29 0;
#X connect 36 0 31 0;
#X connect 37 0 32 0;
#X connect 38 0 43 0;
#X connect 38 0 44 0;
#X connect 39 0 40 0;
#X connect 42 0 41 0;
#X connect 43 0 39 0;
#X connect 44 0 42 0;
#X connect 46 0 45 0;
#X connect 48 0 47 0;
#X connect 49 0 54 0;
#X connect 49 0 55 0;
#X connect 49 0 56 0;
#X connect 49 0 57 0;
#X connect 51 0 50 0;
#X connect 53 0 52 0;
#X connect 54 0 46 0;
#X connect 55 0 48 0;
#X connect 56 0 51 0;
#X connect 57 0 53 0;
#X connect 58 0 67 0;
#X connect 59 0 68 0;
#X connect 60 0 63 0;
#X connect 60 0 64 0;
#X connect 60 0 65 0;
#X connect 60 0 66 0;
#X connect 61 0 69 0;
#X connect 62 0 70 0;
#X connect 63 0 58 0;
#X connect 64 0 59 0;
#X connect 65 0 61 0;
#X connect 66 0 62 0;
#X connect 67 0 72 0;
#X connect 68 0 78 0;
#X connect 69 0 82 0;
#X connect 70 0 86 0;
#X connect 71 0 5 0;
#X connect 71 0 5 1;
#X connect 72 0 76 0;
#X connect 73 0 74 0;
#X connect 74 0 150 0;
#X connect 75 0 74 1;
#X connect 76 0 73 0;
#X connect 77 0 71 1;
#X connect 78 0 81 0;
#X connect 79 0 80 0;
#X connect 80 0 152 0;
#X connect 81 0 79 0;
#X connect 82 0 85 0;
#X connect 83 0 84 0;
#X connect 84 0 153 0;
#X connect 85 0 83 0;
#X connect 86 0 89 0;
#X connect 87 0 88 0;
#X connect 88 0 154 0;
#X connect 89 0 87 0;
#X connect 90 0 95 0;
#X connect 91 0 96 0;
#X connect 92 0 115 0;
#X connect 92 0 116 0;
#X connect 92 0 117 0;
#X connect 92 0 118 0;
#X connect 93 0 97 0;
#X connect 94 0 98 0;
#X connect 95 0 99 0;
#X connect 96 0 103 0;
#X connect 97 0 107 0;
#X connect 98 0 111 0;
#X connect 99 0 102 0;
#X connect 100 0 101 0;
#X connect 101 0 158 0;
#X connect 102 0 100 0;
#X connect 103 0 106 0;
#X connect 104 0 105 0;
#X connect 105 0 157 0;
#X connect 106 0 104 0;
#X connect 107 0 110 0;
#X connect 108 0 109 0;
#X connect 109 0 156 0;
#X connect 110 0 108 0;
#X connect 111 0 114 0;
#X connect 112 0 113 0;
#X connect 113 0 155 0;
#X connect 114 0 112 0;
#X connect 115 0 90 0;
#X connect 116 0 91 0;
#X connect 117 0 93 0;
#X connect 118 0 94 0;
#X connect 119 0 80 1;
#X connect 120 0 84 1;
#X connect 121 0 88 1;
#X connect 122 0 101 1;
#X connect 123 0 105 1;
#X connect 124 0 109 1;
#X connect 125 0 113 1;
#X connect 127 0 134 0;
#X connect 127 0 136 0;
#X connect 128 0 133 0;
#X connect 129 0 131 0;
#X connect 129 1 130 0;
#X connect 130 0 133 1;
#X connect 131 0 132 0;
#X connect 132 0 133 1;
#X connect 133 0 126 0;
#X connect 133 0 135 0;
#X connect 134 0 148 0;
#X connect 135 0 151 0;
#X connect 136 0 135 1;
#X connect 138 0 141 0;
#X connect 139 0 143 0;
#X connect 140 0 145 0;
#X connect 142 0 134 1;
#X connect 144 0 136 1;
#X connect 146 0 147 0;
#X connect 147 0 127 0;
#X connect 149 0 126 0;
#X connect 159 0 71 0;
#X connect 160 0 162 0;
#X connect 161 0 160 0;
#X connect 162 0 163 0;
#X connect 163 0 167 0;
#X connect 164 0 165 0;
#X connect 165 0 168 0;
#X connect 166 0 164 0;
#X connect 167 0 166 0;
#X connect 168 0 169 0;
#X connect 170 0 211 0;
#X connect 171 0 170 0;
#X connect 172 0 212 0;
#X connect 173 0 172 0;
#X connect 174 0 175 0;
#X connect 174 1 183 0;
#X connect 175 0 176 0;
#X connect 176 0 177 0;
#X connect 177 0 178 0;
#X connect 178 0 184 0;
#X connect 179 0 180 0;
#X connect 180 0 181 0;
#X connect 181 0 184 1;
#X connect 182 0 185 0;
#X connect 183 0 179 0;
#X connect 184 0 187 0;
#X connect 185 0 186 0;
#X connect 186 0 181 1;
#X connect 187 0 189 0;
#X connect 188 0 178 1;
#X connect 190 0 191 0;
#X connect 191 0 192 0;
#X connect 192 0 203 0;
#X connect 193 0 192 1;
#X connect 194 0 193 0;
#X connect 195 0 196 0;
#X connect 196 0 197 0;
#X connect 197 0 201 0;
#X connect 198 0 199 0;
#X connect 199 0 201 1;
#X connect 200 0 198 0;
#X connect 201 0 207 0;
#X connect 202 0 194 0;
#X connect 203 0 210 0;
#X connect 204 0 205 0;
#X connect 205 0 207 1;
#X connect 206 0 190 0;
#X connect 207 0 202 0;
#X connect 208 0 174 0;
#X connect 209 0 206 0;
