#N canvas 673 0 1366 725 12;
#X obj 49 72 bng 24 250 50 0 empty empty empty 17 7 0 10 #00fc04 #000000 #000000;
#X obj 49 101 t b b;
#X obj 49 159 line~;
#X obj 49 217 *~;
#X obj 49 256 throw~ \$0-output;
#X obj 76 189 osc~ 261;
#X obj 56 486 catch~ \$0-output;
#X obj 56 564 dac~ 1 2;
#X obj 56 530 /~ 5;
#X msg 49 130 1 \, 0 500;
#X obj 195 73 bng 24 250 50 0 empty empty empty 17 7 0 10 #00fc04 #000000 #000000;
#X obj 195 102 t b b;
#X obj 195 160 line~;
#X obj 195 218 *~;
#X obj 195 257 throw~ \$0-output;
#X msg 195 131 1 \, 0 500;
#X obj 330 69 bng 24 250 50 0 empty empty empty 17 7 0 10 #00fc04 #000000 #000000;
#X obj 330 98 t b b;
#X obj 330 156 line~;
#X obj 330 214 *~;
#X obj 330 253 throw~ \$0-output;
#X msg 330 127 1 \, 0 500;
#X obj 465 71 bng 24 250 50 0 empty empty empty 17 7 0 10 #00fc04 #000000 #000000;
#X obj 465 100 t b b;
#X obj 465 158 line~;
#X obj 465 216 *~;
#X obj 465 255 throw~ \$0-output;
#X msg 465 129 1 \, 0 500;
#X obj 600 69 bng 24 250 50 0 empty empty empty 17 7 0 10 #00fc04 #000000 #000000;
#X obj 600 98 t b b;
#X obj 600 156 line~;
#X obj 600 214 *~;
#X obj 600 253 throw~ \$0-output;
#X msg 600 127 1 \, 0 500;
#X obj 736 68 bng 24 250 50 0 empty empty empty 17 7 0 10 #00fc04 #000000 #000000;
#X obj 736 97 t b b;
#X obj 736 155 line~;
#X obj 736 213 *~;
#X obj 736 252 throw~ \$0-output;
#X msg 736 126 1 \, 0 500;
#X obj 879 66 bng 24 250 50 0 empty empty empty 17 7 0 10 #00fc04 #000000 #000000;
#X obj 879 95 t b b;
#X obj 879 153 line~;
#X obj 879 211 *~;
#X obj 879 250 throw~ \$0-output;
#X msg 879 124 1 \, 0 500;
#X obj 222 190 osc~ 293;
#X obj 357 186 osc~ 329;
#X obj 492 188 osc~ 349;
#X obj 627 186 osc~ 391;
#X obj 763 185 osc~ 440;
#X obj 906 183 osc~ 494;
#X obj 1026 62 bng 24 250 50 0 empty empty empty 17 7 0 10 #00fc04 #000000 #000000;
#X obj 1026 91 t b b;
#X obj 1026 149 line~;
#X obj 1026 207 *~;
#X obj 1026 246 throw~ \$0-output;
#X msg 1026 120 1 \, 0 500;
#X obj 1053 179 osc~ 523;
#X text 47 34 ESCALA MUSICAL;
#X connect 0 0 1 0;
#X connect 1 0 9 0;
#X connect 2 0 3 0;
#X connect 3 0 4 0;
#X connect 5 0 3 1;
#X connect 6 0 8 0;
#X connect 8 0 7 0;
#X connect 8 0 7 1;
#X connect 9 0 2 0;
#X connect 10 0 11 0;
#X connect 11 0 15 0;
#X connect 12 0 13 0;
#X connect 13 0 14 0;
#X connect 15 0 12 0;
#X connect 16 0 17 0;
#X connect 17 0 21 0;
#X connect 18 0 19 0;
#X connect 19 0 20 0;
#X connect 21 0 18 0;
#X connect 22 0 23 0;
#X connect 23 0 27 0;
#X connect 24 0 25 0;
#X connect 25 0 26 0;
#X connect 27 0 24 0;
#X connect 28 0 29 0;
#X connect 29 0 33 0;
#X connect 30 0 31 0;
#X connect 31 0 32 0;
#X connect 33 0 30 0;
#X connect 34 0 35 0;
#X connect 35 0 39 0;
#X connect 36 0 37 0;
#X connect 37 0 38 0;
#X connect 39 0 36 0;
#X connect 40 0 41 0;
#X connect 41 0 45 0;
#X connect 42 0 43 0;
#X connect 43 0 44 0;
#X connect 45 0 42 0;
#X connect 46 0 13 1;
#X connect 47 0 19 1;
#X connect 48 0 25 1;
#X connect 49 0 31 1;
#X connect 50 0 37 1;
#X connect 51 0 43 1;
#X connect 52 0 53 0;
#X connect 53 0 57 0;
#X connect 54 0 55 0;
#X connect 55 0 56 0;
#X connect 57 0 54 0;
#X connect 58 0 55 1;
