#N canvas 676 0 681 716 12;
#X obj 105 304 dac~;
#X obj 324 329 phasor~ 440;
#X obj 105 110 noise~;
#X obj 279 97 tgl 19 0 empty empty empty 0 -10 0 12 #fcfcfc #000000 #000000 0 1;
#X obj 280 177 bng 19 250 50 0 empty empty empty 0 -10 0 12 #fcfcfc #000000 #000000;
#X msg 169 118 1;
#X msg 166 163 0;
#X obj 105 248 *~ 0.1;
#X obj 105 185 *~;
#X obj 211 177 delay 50;
#X floatatom 34 390 5 0 0 0 - - - 0;
#X obj 527 348 tgl 19 0 empty empty empty 0 -10 0 12 #fcfcfc #000000 #000000 0 1;
#X msg 408 370 1;
#X msg 405 415 0;
#X obj 327 424 *~;
#X obj 515 440 delay 100;
#X obj 420 211 tgl 19 0 empty empty empty 0 -10 0 12 #fcfcfc #000000 #000000 0 1;
#X obj 280 137 metro 1000;
#X obj 519 389 metro 500;
#X obj 556 69 int;
#X obj 513 69 bng 19 250 50 0 empty empty empty 0 -10 0 12 #fcfcfc #000000 #000000;
#X msg 572 29 0;
#X obj 105 216 *~ 1;
#X obj 613 67 + 1;
#X obj 556 136 % 4;
#X floatatom 556 101 5 0 0 0 - - - 0;
#X floatatom 458 151 5 0 0 0 - - - 0;
#X obj 553 166 + 1;
#X text 307 215 start here ->;
#X obj 32 310 bng 19 250 50 0 empty empty empty 0 -10 0 12 #fcfcfc #000000 #000000;
#X obj 36 463 osc~;
#X obj 200 228 tgl 19 0 empty empty empty 0 -10 0 12 #fcfcfc #000000 #000000 0 1;
#X obj 30 275 metro 250;
#X obj 30 230 tgl 19 0 empty empty empty 0 -10 0 12 #fcfcfc #000000 #000000 0 1;
#X obj 33 347 random 10;
#X obj 36 427 * 50;
#X obj 21 144 hip~ 3000;
#X obj 321 289 * 50;
#X connect 1 0 14 0;
#X connect 2 0 8 0;
#X connect 2 0 36 0;
#X connect 3 0 17 0;
#X connect 5 0 8 1;
#X connect 6 0 8 1;
#X connect 7 0 0 0;
#X connect 7 0 0 1;
#X connect 8 0 22 0;
#X connect 9 0 6 0;
#X connect 10 0 35 0;
#X connect 11 0 18 0;
#X connect 12 0 14 1;
#X connect 13 0 14 1;
#X connect 14 0 22 0;
#X connect 15 0 13 0;
#X connect 16 0 11 0;
#X connect 16 0 3 0;
#X connect 16 0 31 0;
#X connect 16 0 33 0;
#X connect 17 0 4 0;
#X connect 17 0 5 0;
#X connect 17 0 9 0;
#X connect 18 0 12 0;
#X connect 18 0 15 0;
#X connect 18 0 20 0;
#X connect 19 0 23 0;
#X connect 19 0 25 0;
#X connect 20 0 19 0;
#X connect 21 0 19 1;
#X connect 22 0 7 0;
#X connect 23 0 19 1;
#X connect 24 0 27 0;
#X connect 25 0 24 0;
#X connect 26 0 37 0;
#X connect 27 0 26 0;
#X connect 29 0 34 0;
#X connect 30 0 22 0;
#X connect 31 0 22 1;
#X connect 32 0 29 0;
#X connect 33 0 32 0;
#X connect 34 0 10 0;
#X connect 35 0 30 0;
#X connect 36 0 8 0;
#X connect 37 0 1 0;
