#N canvas 676 0 681 716 12;
#X obj 217 223 delwrite~ eco 20000;
#X obj 219 291 delread~ eco;
#X obj 39 131 noise~;
#X obj 196 46 bng 19 250 50 0 empty empty empty 0 -10 0 12 #fcfcfc #000000 #000000;
#X obj 197 86 t b b;
#X msg 220 145 1;
#X obj 118 123 delay 50;
#X msg 117 152 0;
#X obj 98 201 *~;
#X obj 93 470 dac~;
#X floatatom 217 258 5 0 0 0 - - - 0;
#X obj 368 263 *~;
#X obj 393 76 vsl 19 162 0 1 0 0 empty empty empty 0 -9 0 12 #fcfcfc #000000 #000000 0 1;
#X obj 94 420 +~;
#X obj 131 376 *~;
#X obj 226 348 vsl 19 162 0 1 0 0 empty empty empty 0 -9 0 12 #fcfcfc #000000 #000000 0 1;
#X text 423 147 <- Repeticiones;
#X text 267 396 <- Efecto de Delay;
#X text 83 258 Tiempo de Delay ->;
#X text 42 48 Eco;
#X connect 1 0 11 0;
#X connect 1 0 14 0;
#X connect 2 0 8 0;
#X connect 3 0 4 0;
#X connect 4 0 6 0;
#X connect 4 1 5 0;
#X connect 5 0 8 1;
#X connect 6 0 7 0;
#X connect 7 0 8 1;
#X connect 8 0 0 0;
#X connect 8 0 13 0;
#X connect 10 0 1 0;
#X connect 11 0 0 0;
#X connect 12 0 11 1;
#X connect 13 0 9 0;
#X connect 13 0 9 1;
#X connect 14 0 13 1;
#X connect 15 0 14 1;
